<?xml version="1.0" encoding="utf-8"?>
<svg xmlns="http://www.w3.org/2000/svg" xmlns:svg="http://www.w3.org/2000/svg" version="1.1" viewBox="0 0 1400 340">
	<title>The titlepage for the Standard Ebooks edition of The Book of Tea, by Okakura Kakuzō</title>
	<g aria-label="THE BOOK OF TEA">
		<path d="m 229.52777,68.245613 h 18.33918 V 130 H 265.4576 V 68.245613 h 18.33918 V 52.807016 h -54.26901 z"/>
		<path d="M 312.72221,99.029239 H 337.6111 V 130 h 17.59065 V 52.807016 H 337.6111 V 83.590642 H 312.72221 V 52.807016 H 295.13157 V 130 h 17.59064 z"/>
		<path d="M 415.56725,52.807016 H 371.40351 V 130 h 44.16374 v -15.4386 h -26.5731 V 99.029239 h 25.45029 V 83.590642 H 388.99415 V 68.245613 h 26.5731 z"/>
		<path d="M 461.26462,52.807016 V 130 h 29.28655 c 16,0 25.26316,-8.79532 25.26316,-21.52047 0,-12.444443 -6.83041,-17.777776 -16.46784,-19.461987 6.54971,-3.368421 9.63743,-9.450292 9.63743,-16.561404 0,-14.690058 -10.47953,-19.649123 -23.76608,-19.649123 z m 17.59064,30.222223 V 66.374268 h 1.40351 c 7.67252,0 11.69591,2.339181 11.69591,7.859649 0,6.456141 -4.11696,8.795322 -11.69591,8.795322 z m 0,33.403511 V 98.187134 h 5.52047 c 8.32749,0 12.91228,2.526316 12.91228,9.637426 0,6.08187 -4.58479,8.60819 -12.91228,8.60819 z"/>
		<path d="m 525.11988,91.356724 c 0,22.549706 16.09357,40.046786 38.92397,40.046786 22.17544,0 38.83041,-17.49708 38.83041,-40.046786 0,-22.549708 -17.4035,-39.953217 -38.83041,-39.953217 -21.23976,0 -38.92397,17.403509 -38.92397,39.953217 z m 18.99415,0 c 0,-11.508772 6.36257,-23.017544 19.92982,-23.017544 13.66082,0 19.83626,11.508772 19.83626,23.017544 0,11.508776 -5.80117,23.017546 -19.83626,23.017546 -14.40935,0 -19.92982,-11.50877 -19.92982,-23.017546 z"/>
		<path d="m 612.17399,91.356724 c 0,22.549706 16.09356,40.046786 38.92397,40.046786 22.17544,0 38.83041,-17.49708 38.83041,-40.046786 0,-22.549708 -17.40351,-39.953217 -38.83041,-39.953217 -21.23976,0 -38.92397,17.403509 -38.92397,39.953217 z m 18.99415,0 c 0,-11.508772 6.36257,-23.017544 19.92982,-23.017544 13.66082,0 19.83626,11.508772 19.83626,23.017544 0,11.508776 -5.80117,23.017546 -19.83626,23.017546 -14.40935,0 -19.92982,-11.50877 -19.92982,-23.017546 z"/>
		<path d="M 772.95906,130 737.02923,89.391812 768.09356,52.807016 H 746.76023 L 720.28069,84.33918 V 52.807016 H 702.69005 V 130 h 17.59064 V 97.251461 L 748.72514,130 Z"/>
		<path d="m 808.46051,91.356724 c 0,22.549706 16.09357,40.046786 38.92398,40.046786 22.17544,0 38.83041,-17.49708 38.83041,-40.046786 0,-22.549708 -17.40351,-39.953217 -38.83041,-39.953217 -21.23976,0 -38.92398,17.403509 -38.92398,39.953217 z m 18.99416,0 c 0,-11.508772 6.36257,-23.017544 19.92982,-23.017544 13.66082,0 19.83626,11.508772 19.83626,23.017544 0,11.508776 -5.80117,23.017546 -19.83626,23.017546 -14.40935,0 -19.92982,-11.50877 -19.92982,-23.017546 z"/>
		<path d="M 943.60816,52.807016 H 898.97658 V 130 h 17.59064 V 99.029239 h 24.98246 V 83.590642 H 916.56722 V 68.245613 h 27.04094 z"/>
		<path d="m 978.12427,68.245613 h 18.33918 V 130 h 17.59065 V 68.245613 h 18.3392 V 52.807016 h -54.26903 z"/>
		<path d="M 1087.8918,52.807016 H 1043.728 V 130 h 44.1638 v -15.4386 h -26.5731 V 99.029239 h 25.4503 V 83.590642 h -25.4503 V 68.245613 h 26.5731 z"/>
		<path d="m 1142.7573,52.807016 h -16.2807 L 1095.3187,130 h 18.9006 l 5.7076,-15.4386 h 29.3801 L 1155.0146,130 h 18.9006 z m 0.5614,46.31579 h -17.4035 l 8.6082,-22.45614 h 0.1871 z"/>
	</g>
	<g aria-label="OKAKURA KAKUZŌ">
		<path d="m 300.69299,261.01754 c 0,16.91228 12.07017,30.03509 29.19298,30.03509 16.63158,0 29.1228,-13.12281 29.1228,-30.03509 0,-16.91228 -13.05263,-29.96491 -29.1228,-29.96491 -15.92983,0 -29.19298,13.05263 -29.19298,29.96491 z m 14.24561,0 c 0,-8.63157 4.77193,-17.26315 14.94737,-17.26315 10.24561,0 14.87719,8.63158 14.87719,17.26315 0,8.63158 -4.35088,17.26316 -14.87719,17.26316 -10.80702,0 -14.94737,-8.63158 -14.94737,-17.26316 z"/>
		<path d="m 422.5318,290 -26.94736,-30.45614 23.29824,-27.4386 h -16 l -19.85965,23.64913 V 232.10526 H 369.83005 V 290 h 13.19298 V 265.4386 L 404.35637,290 Z"/>
		<path d="M 459.4693,232.10526 H 447.25877 L 423.89035,290 h 14.17544 l 4.2807,-11.57895 h 22.03509 L 468.66228,290 h 14.17544 z m 0.42105,34.73685 H 446.83772 L 453.29386,250 h 0.14035 z"/>
		<path d="m 542.72918,290 -26.94737,-30.45614 23.29824,-27.4386 h -16 l -19.85964,23.64913 V 232.10526 H 490.02742 V 290 h 13.19299 V 265.4386 L 524.55374,290 Z"/>
		<path d="M 594.75438,232.10526 H 581.5614 v 33.47369 c 0,9.68421 -2.94737,12.49123 -9.40351,12.49123 -6.45614,0 -9.40351,-2.80702 -9.40351,-12.49123 V 232.10526 H 549.5614 v 37.33334 c 0,14.31579 7.85965,21.61403 22.59649,21.61403 14.73684,0 22.59649,-7.29824 22.59649,-21.61403 z"/>
		<path d="M 607.48357,232.10526 V 290 h 13.19298 V 267.12281 L 638.36076,290 h 16.77193 l -19.92982,-23.92982 c 7.08772,-2.24562 11.85965,-8.07018 11.85965,-16.77193 0,-11.36842 -8.14035,-17.19299 -18.8772,-17.19299 z m 13.19298,25.68421 v -15.15789 h 1.54386 c 4.98246,0 10.94737,0.35088 10.94737,7.57895 0,7.22807 -5.96491,7.57894 -10.94737,7.57894 z"/>
		<path d="M 692.18859,232.10526 H 679.97806 L 656.60964,290 h 14.17544 l 4.2807,-11.57895 h 22.03509 L 701.38157,290 h 14.17544 z m 0.42105,34.73685 H 679.55701 L 686.01315,250 h 0.14035 z"/>
		<path d="m 799.63707,290 -26.94736,-30.45614 23.29824,-27.4386 h -16 L 760.1283,255.75439 V 232.10526 H 746.93532 V 290 H 760.1283 V 265.4386 L 781.46164,290 Z"/>
		<path d="M 836.57455,232.10526 H 824.36402 L 800.9956,290 h 14.17544 l 4.2807,-11.57895 h 22.03509 L 845.76753,290 h 14.17544 z m 0.42105,34.73685 H 823.94297 L 830.39911,250 h 0.14035 z"/>
		<path d="m 919.83443,290 -26.94737,-30.45614 23.29825,-27.4386 h -16 l -19.85965,23.64913 V 232.10526 H 867.13268 V 290 h 13.19298 V 265.4386 L 901.65899,290 Z"/>
		<path d="m 971.85962,232.10526 h -13.19298 v 33.47369 c 0,9.68421 -2.94737,12.49123 -9.40351,12.49123 -6.45614,0 -9.40351,-2.80702 -9.40351,-12.49123 v -33.47369 h -13.19298 v 37.33334 c 0,14.31579 7.85965,21.61403 22.59649,21.61403 14.73684,0 22.59649,-7.29824 22.59649,-21.61403 z"/>
		<path d="m 1033.2204,232.10526 h -47.64915 v 11.57895 h 24.56145 L 981.50107,290 h 49.82453 v -11.57895 h -26.807 z"/>
		<path d="m 1055.8015,215.19298 v 8.42106 h 28.6316 v -8.42106 z m -14.807,45.82456 c 0,16.91228 12.0702,30.03509 29.193,30.03509 16.6316,0 29.1228,-13.12281 29.1228,-30.03509 0,-16.91228 -13.0526,-29.96491 -29.1228,-29.96491 -15.9298,0 -29.193,13.05263 -29.193,29.96491 z m 14.2456,0 c 0,-8.63157 4.7719,-17.26315 14.9474,-17.26315 10.2456,0 14.8772,8.63158 14.8772,17.26315 0,8.63158 -4.3509,17.26316 -14.8772,17.26316 -10.807,0 -14.9474,-8.63158 -14.9474,-17.26316 z"/>
	</g>
</svg>
