<?xml version="1.0" encoding="utf-8"?>
<svg xmlns="http://www.w3.org/2000/svg" xmlns:svg="http://www.w3.org/2000/svg" version="1.1" viewBox="0 0 1400 340">
	<title>The titlepage for the Standard Ebooks edition of The Book of Tea, by Okakura Kakuzo</title>
	<g aria-label="THE BOOK OF TEA">
		<path d="m 237.09429,61.789107 h 57.70285 V 69.55592 H 270.58296 V 130 h -9.27449 V 69.55592 h -24.21418 z"/>
		<path d="m 308.75182,61.789107 h 9.2288 v 27.960527 h 33.53436 V 61.789107 h 9.2288 V 130 h -9.2288 V 97.516447 H 317.98062 V 130 h -9.2288 z"/>
		<path d="m 384.11,61.789107 h 43.12866 V 69.55592 H 393.3388 v 20.193714 h 32.48355 v 7.766813 H 393.3388 v 24.716743 h 34.72222 V 130 H 384.11 Z"/>
		<path d="m 492.33735,97.425073 v 24.990867 h 14.80263 q 7.44701,0 11.0106,-3.06104 3.60929,-3.10673 3.60929,-9.45724 0,-6.3962 -3.60929,-9.41155 -3.56359,-3.061037 -11.0106,-3.061037 z m 0,-28.051902 v 20.559211 h 13.66045 q 6.7617,0 10.05117,-2.512792 3.33517,-2.55848 3.33517,-7.766813 0,-5.162646 -3.33517,-7.721126 -3.28947,-2.55848 -10.05117,-2.55848 z m -9.2288,-7.584064 h 23.57456 q 10.55373,0 16.26462,4.385965 5.71089,4.385965 5.71089,12.472588 0,6.259137 -2.92397,9.959795 -2.92398,3.700658 -8.58918,4.614401 6.80738,1.461988 10.55372,6.122076 3.79204,4.614398 3.79204,11.558848 0,9.13742 -6.21345,14.11732 Q 519.06433,130 507.59685,130 h -24.4883 z"/>
		<path d="m 578.29494,68.048245 q -10.05117,0 -15.9905,7.49269 -5.89364,7.49269 -5.89364,20.422149 0,12.883776 5.89364,20.376466 5.93933,7.49269 15.9905,7.49269 10.05117,0 15.89912,-7.49269 5.89364,-7.49269 5.89364,-20.376466 0,-12.929459 -5.89364,-20.422149 -5.84795,-7.49269 -15.89912,-7.49269 z m 0,-7.492691 q 14.34576,0 22.93494,9.639986 8.58918,9.594298 8.58918,25.767544 0,16.127556 -8.58918,25.767546 -8.58918,9.5943 -22.93494,9.5943 -14.39145,0 -23.02632,-9.5943 -8.58918,-9.5943 -8.58918,-25.767546 0,-16.173246 8.58918,-25.767544 8.63487,-9.639986 23.02632,-9.639986 z"/>
		<path d="m 656.94261,68.048245 q -10.05117,0 -15.99049,7.49269 -5.89364,7.49269 -5.89364,20.422149 0,12.883776 5.89364,20.376466 5.93932,7.49269 15.99049,7.49269 10.05117,0 15.89913,-7.49269 5.89364,-7.49269 5.89364,-20.376466 0,-12.929459 -5.89364,-20.422149 -5.84796,-7.49269 -15.89913,-7.49269 z m 0,-7.492691 q 14.34576,0 22.93495,9.639986 8.58918,9.594298 8.58918,25.767544 0,16.127556 -8.58918,25.767546 -8.58919,9.5943 -22.93495,9.5943 -14.39144,0 -23.02631,-9.5943 -8.58918,-9.5943 -8.58918,-25.767546 0,-16.173246 8.58918,-25.767544 8.63487,-9.639986 23.02631,-9.639986 z"/>
		<path d="m 707.90385,61.789107 h 9.2288 v 28.828582 l 30.61039,-28.828582 h 11.87865 L 725.76752,93.587353 762.04311,130 H 749.89033 L 717.13265,97.15095 V 130 h -9.2288 z"/>
		<path d="m 836.78182,68.048245 q -10.05117,0 -15.9905,7.49269 -5.89364,7.49269 -5.89364,20.422149 0,12.883776 5.89364,20.376466 5.93933,7.49269 15.9905,7.49269 10.05117,0 15.89912,-7.49269 5.89364,-7.49269 5.89364,-20.376466 0,-12.929459 -5.89364,-20.422149 -5.84795,-7.49269 -15.89912,-7.49269 z m 0,-7.492691 q 14.34576,0 22.93494,9.639986 8.58918,9.594298 8.58918,25.767544 0,16.127556 -8.58918,25.767546 -8.58918,9.5943 -22.93494,9.5943 -14.39145,0 -23.02632,-9.5943 -8.58918,-9.5943 -8.58918,-25.767546 0,-16.173246 8.58918,-25.767544 8.63487,-9.639986 23.02632,-9.639986 z"/>
		<path d="m 887.74306,61.789107 h 39.19956 v 7.766813 h -29.97076 v 20.10234 h 27.04678 v 7.766813 H 896.97186 V 130 h -9.2288 z"/>
		<path d="m 971.98461,61.789107 h 57.70289 v 7.766813 h -24.2142 V 130 h -9.27451 V 69.55592 h -24.21418 z"/>
		<path d="m 1043.6422,61.789107 h 43.1286 v 7.766813 h -33.8998 v 20.193714 h 32.4835 v 7.766813 h -32.4835 v 24.716743 h 34.7222 V 130 h -43.951 z"/>
		<path d="m 1130.6506,70.880847 -12.5183,33.945543 h 25.0822 z m -5.2084,-9.09174 h 10.4624 L 1161.9006,130 h -9.5943 l -6.2135,-17.49817 h -30.7474 L 1109.1319,130 h -9.7313 z"/>
	</g>
	<g aria-label="OKAKURA KAKUZO">
		<path d="m 370.04249,243.53618 q -7.53838,0 -11.99287,5.61952 -4.42023,5.61952 -4.42023,15.31661 0,9.66283 4.42023,15.28235 4.45449,5.61952 11.99287,5.61952 7.53838,0 11.92434,-5.61952 4.42023,-5.61952 4.42023,-15.28235 0,-9.69709 -4.42023,-15.31661 -4.38596,-5.61952 -11.92434,-5.61952 z m 0,-5.61951 q 10.75932,0 17.20121,7.22999 6.44188,7.19572 6.44188,19.32565 0,12.09567 -6.44188,19.32566 -6.44189,7.19573 -17.20121,7.19573 -10.79358,0 -17.26973,-7.19573 -6.44189,-7.19572 -6.44189,-19.32566 0,-12.12993 6.44189,-19.32565 6.47615,-7.22999 17.26973,-7.22999 z"/>
		<path d="m 409.51343,238.84183 h 6.9216 v 21.62144 l 22.95779,-21.62144 h 8.90899 L 422.91119,262.69052 450.11787,290 h -9.11458 L 416.43503,265.36321 V 290 h -6.9216 z"/>
		<path d="m 476.43092,245.66064 -9.3887,25.45915 h 18.81168 z m -3.90625,-6.81881 h 7.84677 L 499.86842,290 h -7.19572 l -4.66009,-13.12363 H 464.95203 L 460.29194,290 h -7.29852 z"/>
		<path d="m 512.304,238.84183 h 6.9216 v 21.62144 l 22.95778,-21.62144 h 8.90899 L 525.70175,262.69052 552.90844,290 h -9.11459 L 519.2256,265.36321 V 290 h -6.9216 z"/>
		<path d="m 560.64967,238.84183 h 6.95586 v 31.07867 q 0,8.22369 2.98109,11.85582 2.98108,3.59786 9.66283,3.59786 6.64747,0 9.62856,-3.59786 2.98109,-3.63213 2.98109,-11.85582 v -31.07867 h 6.95586 v 31.93531 q 0,10.00548 -4.96847,15.11102 -4.93421,5.10554 -14.59704,5.10554 -9.6971,0 -14.66557,-5.10554 -4.93421,-5.10554 -4.93421,-15.11102 z"/>
		<path d="m 642.09566,266.01425 q 2.22725,0.75384 4.31744,3.22095 2.12445,2.4671 4.2489,6.78454 L 657.6864,290 h -7.43558 l -6.54469,-13.12363 q -2.53563,-5.1398 -4.93421,-6.8188 -2.36431,-1.67901 -6.47615,-1.67901 H 624.7574 V 290 h -6.92161 v -51.15817 h 15.625 q 8.77193,0 13.08937,3.66639 4.31743,3.6664 4.31743,11.06771 0,4.83142 -2.26151,8.01809 -2.22725,3.18668 -6.51042,4.42023 z M 624.7574,244.52988 v 18.16064 h 8.70339 q 5.00275,0 7.53838,-2.29578 2.5699,-2.33005 2.5699,-6.81881 0,-4.48876 -2.5699,-6.75027 -2.53563,-2.29578 -7.53838,-2.29578 z"/>
		<path d="m 685.84979,245.66064 -9.3887,25.45915 h 18.81167 z m -3.90625,-6.81881 h 7.84677 L 709.28729,290 h -7.19572 l -4.66009,-13.12363 H 674.3709 L 669.71081,290 h -7.29852 z"/>
		<path d="m 749.06385,238.84183 h 6.9216 v 21.62144 l 22.95779,-21.62144 h 8.90899 L 762.4616,262.69052 789.66829,290 h -9.11458 L 755.98545,265.36321 V 290 h -6.9216 z"/>
		<path d="m 815.98135,245.66064 -9.3887,25.45915 h 18.81168 z m -3.90625,-6.81881 h 7.84677 L 839.41885,290 h -7.19572 l -4.66009,-13.12363 H 804.50246 L 799.84237,290 h -7.29852 z"/>
		<path d="m 851.85444,238.84183 h 6.9216 v 21.62144 l 22.95779,-21.62144 h 8.90899 L 865.25219,262.69052 892.45888,290 H 883.3443 L 858.77604,265.36321 V 290 h -6.9216 z"/>
		<path d="m 900.2001,238.84183 h 6.95586 v 31.07867 q 0,8.22369 2.98109,11.85582 2.98108,3.59786 9.66283,3.59786 6.64748,0 9.62856,-3.59786 2.98109,-3.63213 2.98109,-11.85582 v -31.07867 h 6.95586 v 31.93531 q 0,10.00548 -4.96847,15.11102 -4.93421,5.10554 -14.59704,5.10554 -9.6971,0 -14.66557,-5.10554 -4.93421,-5.10554 -4.93421,-15.11102 z"/>
		<path d="m 953.20587,238.84183 h 40.19326 v 5.27687 l -32.3465,40.05619 h 33.1346 V 290 h -41.76946 v -5.27686 l 32.34649,-40.0562 h -31.55839 z"/>
		<path d="m 1030.026,243.53618 q -7.5384,0 -11.9929,5.61952 -4.4202,5.61952 -4.4202,15.31661 0,9.66283 4.4202,15.28235 4.4545,5.61952 11.9929,5.61952 7.5384,0 11.9244,-5.61952 4.4202,-5.61952 4.4202,-15.28235 0,-9.69709 -4.4202,-15.31661 -4.386,-5.61952 -11.9244,-5.61952 z m 0,-5.61951 q 10.7593,0 17.2012,7.22999 6.4419,7.19572 6.4419,19.32565 0,12.09567 -6.4419,19.32566 -6.4419,7.19573 -17.2012,7.19573 -10.7936,0 -17.2697,-7.19573 -6.4419,-7.19572 -6.4419,-19.32566 0,-12.12993 6.4419,-19.32565 6.4761,-7.22999 17.2697,-7.22999 z"/>
	</g>
</svg>
